M48
;DRILL file {KiCad (5.0.1-3-g963ef8bb5)} date Monday, April 01, 2019 at 01:29:19 PM
;FORMAT={-:-/ absolute / metric / decimal}
FMAT,2
METRIC,TZ
T1C0.900
T2C1.600
T3C2.000
%
G90
G05
M71
T1
X136.8Y-91.
X136.8Y-93.9
X139.4Y-93.9
X139.5Y-104.9
X153.2Y-117.9
X155.8Y-92.8
X155.8Y-106.9
X157.3Y-117.9
X167.Y-95.9
X167.Y-104.4
X180.4Y-122.6
X180.4Y-126.
X174.666Y-119.28
X174.666Y-121.82
X174.666Y-124.36
X155.66Y-124.4
X158.2Y-124.4
X160.74Y-124.4
X184.9Y-102.3
X184.9Y-104.84
X184.9Y-107.38
X184.9Y-109.92
X184.9Y-112.46
X184.9Y-115.
X184.9Y-117.54
X184.9Y-120.08
X125.266Y-89.18
X125.266Y-91.72
X125.266Y-94.26
X125.266Y-96.8
X127.806Y-89.18
X127.806Y-91.72
X127.806Y-94.26
X127.806Y-96.8
X152.218Y-77.624
X154.758Y-77.624
X157.298Y-77.624
X134.438Y-108.05
X134.438Y-112.93
X159.68Y-108.104
X162.22Y-108.104
X164.76Y-108.104
X124.786Y-102.008
X124.786Y-104.548
X124.786Y-107.088
X124.786Y-109.628
X124.786Y-112.168
X124.786Y-114.708
X124.786Y-117.248
X124.786Y-119.788
X165.445Y-68.947
X167.985Y-68.947
X170.525Y-68.947
X173.065Y-68.947
X185.Y-76.82
X185.Y-79.36
X185.Y-81.9
X185.Y-84.44
X185.Y-86.98
X185.Y-89.52
X185.Y-92.06
X185.Y-94.6
X142.82Y-90.07
X142.82Y-92.61
X142.82Y-95.15
X142.82Y-97.69
X142.82Y-100.23
X142.82Y-102.77
X142.82Y-105.31
X142.82Y-107.85
X142.82Y-110.39
X142.82Y-112.93
X142.82Y-115.47
X142.82Y-118.01
X142.82Y-120.55
X142.82Y-123.09
X150.44Y-90.07
X150.44Y-92.61
X150.44Y-95.15
X150.44Y-97.69
X150.44Y-100.23
X150.44Y-102.77
X150.44Y-105.31
X150.44Y-107.85
X150.44Y-110.39
X150.44Y-112.93
X150.44Y-115.47
X150.44Y-118.01
X150.44Y-120.55
X150.44Y-123.09
X165.445Y-75.797
X167.985Y-75.797
X170.525Y-75.797
X173.065Y-75.797
T2
X152.218Y-69.496
X157.298Y-69.496
T3
X186.563Y-65.913
X122.428Y-125.095
X186.563Y-125.095
X122.428Y-65.913
T0
M30
